
<svg xmlns="http://www.w3.org/2000/svg"
    xmlns:xlink="http://www.w3.org/1999/xlink" width="1502" height="1127">
 
<image x="0" y="0" width="1502" height="1127"
     xlink:href="Images/background.jpg" /> 

 <rect id="background" x="30" y="50" width="1455" height="1027"
  style="fill: black; fill-opacity: 0.75;"/>
  
<!-- Region Setup -->
<text x="1090" y="225" style="font-family:Ubuntu Light; font-size: 42pt; font-style:bold;fill:white;">Now Voting:</text>
 
<image x="1012" y="257" width="452" height="452"
     xlink:href="Images/Regions/R15.png" /> 

<image x="1170" y="750" width="139" height="85"
     xlink:href="Images/Flags/R15.png" /> 
     
<image x="1020" y="850" width="420" height="70"
     xlink:href="Images/Names/R15.png" /> 

<!-- Voting Box -->
<line x1="50"  y1="125" x2="50"   y2="940" style="stroke:#FFFFFF; stroke-width: 4.0"/>
<line x1="50"  y1="125" x2="1000"   y2="125" style="stroke:#FFFFFF; stroke-width: 4.0"/>
<line x1="50"  y1="940" x2="1000"   y2="940" style="stroke:#FFFFFF; stroke-width: 4.0"/>
<line x1="1000"  y1="125" x2="1000"   y2="940" style="stroke:#FFFFFF; stroke-width: 4.0"/>
<!-- Voting Dividers -->
<line x1="50"  y1="206.5" x2="1000"   y2="206.5" style="stroke:#FFFFFF; stroke-width: 2.0"/>
<line x1="50"  y1="288" x2="1000"   y2="288" style="stroke:#FFFFFF; stroke-width: 2.0"/>
<line x1="50"  y1="369.5" x2="1000"   y2="369.5" style="stroke:#FFFFFF; stroke-width: 2.0"/>
<line x1="50"  y1="451" x2="1000"   y2="451" style="stroke:#FFFFFF; stroke-width: 2.0"/>
<line x1="50"  y1="532.5" x2="1000"   y2="532.5" style="stroke:#FFFFFF; stroke-width: 2.0"/>
<line x1="50"  y1="614" x2="1000"   y2="614" style="stroke:#FFFFFF; stroke-width: 2.0"/>
<line x1="50"  y1="695.5" x2="1000"   y2="695.5" style="stroke:#FFFFFF; stroke-width: 2.0"/>
<line x1="50"  y1="777" x2="1000"   y2="777" style="stroke:#FFFFFF; stroke-width: 2.0"/>
<line x1="50"  y1="858.5" x2="1000"   y2="858.5" style="stroke:#FFFFFF; stroke-width: 2.0"/>

<!-- Region Box -->
<line x1="1015"  y1="125" x2="1015"   y2="940" style="stroke:#FFFFFF; stroke-width: 4.0"/>
<line x1="1465"  y1="125" x2="1465"   y2="940" style="stroke:#FFFFFF; stroke-width: 4.0"/>
<line x1="1015"  y1="940" x2="1465"   y2="940" style="stroke:#FFFFFF; stroke-width: 4.0"/>
<line x1="1015"  y1="125" x2="1465"   y2="125" style="stroke:#FFFFFF; stroke-width: 4.0"/>


<!-- # Voters Box -->
<line x1="50"  y1="965" x2="50"   y2="1025" style="stroke:#FFFFFF; stroke-width: 4.0"/>
<line x1="1000"  y1="965" x2="1000"   y2="1025" style="stroke:#FFFFFF; stroke-width: 4.0"/>
<line x1="50"  y1="965" x2="1000"   y2="965" style="stroke:#FFFFFF; stroke-width: 4.0"/>
<line x1="50"  y1="1025" x2="1000"   y2="1025" style="stroke:#FFFFFF; stroke-width: 4.0"/>
     
<!-- Maximum Width is 946 -->
<rect id="background" x="52" y="967" width="525.555555556" height="56"
  style="fill: #FF9900; fill-opacity:1.0; stroke: white; stroke-width: 4.0"/>
  
<text x="1030" y="1005" style="font-family:Ubuntu Light; font-size: 30pt; font-style:bold;fill:white;">15 of 27 regions voting</text>

<!-- Placings -->
<text x="60" y="185" style="font-family:Ubuntu Light; font-size: 40pt; font-style:bold;fill:white;">01</text>
<text x="60" y="266.5" style="font-family:Ubuntu Light; font-size: 40pt; font-style:bold;fill:white;">02</text>
<text x="60" y="348" style="font-family:Ubuntu Light; font-size: 40pt; font-style:bold;fill:white;">03</text>
<text x="60" y="429.5" style="font-family:Ubuntu Light; font-size: 40pt; font-style:bold;fill:white;">04</text>
<text x="60" y="511" style="font-family:Ubuntu Light; font-size: 40pt; font-style:bold;fill:white;">05</text>
<text x="60" y="592.5" style="font-family:Ubuntu Light; font-size: 40pt; font-style:bold;fill:white;">06</text>
<text x="60" y="674" style="font-family:Ubuntu Light; font-size: 40pt; font-style:bold;fill:white;">07</text>
<text x="60" y="755.5" style="font-family:Ubuntu Light; font-size: 40pt; font-style:bold;fill:white;">08</text>
<text x="60" y="837" style="font-family:Ubuntu Light; font-size: 40pt; font-style:bold;fill:white;">09</text>
<text x="60" y="918.5" style="font-family:Ubuntu Light; font-size: 40pt; font-style:bold;fill:white;">10</text>

<!-- Points -->
<text x="900" y="185" style="font-family:Ubuntu Light; font-size: 40pt; font-style:bold;fill:white;">48</text>
<text x="900" y="266.5" style="font-family:Ubuntu Light; font-size: 40pt; font-style:bold;fill:white;">40</text>
<text x="900" y="348" style="font-family:Ubuntu Light; font-size: 40pt; font-style:bold;fill:white;">21</text>
<text x="900" y="429.5" style="font-family:Ubuntu Light; font-size: 40pt; font-style:bold;fill:white;">22</text>
<text x="900" y="511" style="font-family:Ubuntu Light; font-size: 40pt; font-style:bold;fill:white;">14</text>
<text x="900" y="592.5" style="font-family:Ubuntu Light; font-size: 40pt; font-style:bold;fill:white;">9</text>
<text x="900" y="674" style="font-family:Ubuntu Light; font-size: 40pt; font-style:bold;fill:white;">6</text>
<text x="900" y="755.5" style="font-family:Ubuntu Light; font-size: 40pt; font-style:bold;fill:white;">7</text>
<text x="900" y="837" style="font-family:Ubuntu Light; font-size: 40pt; font-style:bold;fill:white;">32</text>
<text x="900" y="918.5" style="font-family:Ubuntu Light; font-size: 40pt; font-style:bold;fill:white;">29</text>

<!-- Given Points -->
<image x="820" y="145" width="60" height="60"
     xlink:href="Images/Points/point12.png" /> 
<image x="820" y="227.5" width="60" height="60"
     xlink:href="Images/Points/point10.png" /> 
<image x="820" y="309" width="60" height="60"
     xlink:href="Images/Points/point8.png" /> 
<image x="820" y="390.5" width="60" height="60"
     xlink:href="Images/Points/point6.png" /> 
<image x="820" y="472" width="60" height="60"
     xlink:href="Images/Points/point4.png" /> 
<image x="820" y="553.5" width="60" height="60"
     xlink:href="Images/Points/point2.png" /> 
<image x="820" y="635" width="60" height="60"
     xlink:href="Images/Points/point0.png" /> 
<image x="820" y="716.5" width="60" height="60"
     xlink:href="Images/Points/point0.png" /> 
<image x="820" y="798" width="60" height="60"
     xlink:href="Images/Points/point0.png" /> 
<image x="820" y="879.5" width="60" height="60"
     xlink:href="Images/Points/point0.png" /> 

<!-- Songs -->
<image x="125" y="130" width="675" height="70"
     xlink:href="Images/Songs/s1.png" /> 
<image x="125" y="211.5" width="675" height="70"
     xlink:href="Images/Songs/s2.png" />
<image x="125" y="293" width="675" height="70"
     xlink:href="Images/Songs/s3.png" />
<image x="125" y="374.5" width="675" height="70"
     xlink:href="Images/Songs/s4.png" />
<image x="125" y="456" width="675" height="70"
     xlink:href="Images/Songs/s5.png" />
<image x="125" y="537.5" width="675" height="70"
     xlink:href="Images/Songs/s6.png" />
<image x="125" y="619" width="675" height="70"
     xlink:href="Images/Songs/s7.png" />
<image x="125" y="700.5" width="675" height="70"
     xlink:href="Images/Songs/s8.png" />
<image x="125" y="782" width="675" height="70"
     xlink:href="Images/Songs/s9.png" />
<image x="125" y="863.5" width="675" height="70"
     xlink:href="Images/Songs/s10.png" />
 </svg>